<svg width="414" height="300" viewBox="0 0 414 300" fill="none" xmlns="http://www.w3.org/2000/svg">
<g style="mix-blend-mode:screen">
<mask id="mask0" mask-type="alpha" maskUnits="userSpaceOnUse" x="-81" y="0" width="496" height="303">
<g opacity="0.1">
<g clip-path="url(#clip0)">
<path d="M-2.29175 0L4.49526 18.2565L-4.97498 13.6266L-8.39479 33.9877H-15.7079L-12.3407 13.574L-23.3367 18.2039L-10.5519 0H-27.5983L-31.5443 23.9387C-33.4909 35.6187 -25.5465 45.0363 -13.8665 45.0363C-2.18652 45.0363 8.86209 35.566 10.8088 23.9387L14.7547 0H-2.29175Z" fill="white"/>
<path d="M45.9013 0L52.6357 18.2565L43.1655 13.6266L39.7983 34.0403H32.4851L35.8523 13.6266L24.8563 18.2565L37.6412 0H20.5947L16.6488 23.9387C14.7021 35.6187 22.6466 45.0363 34.3266 45.0363C46.0065 45.0363 57.0552 35.566 59.0018 23.9387L62.9478 0H45.9013Z" fill="white"/>
<path d="M94.0944 0L100.881 18.2565L91.4111 13.6266L88.0439 34.0403H80.7308L84.098 13.6266L73.102 18.2565L85.8342 0H68.7878L64.8418 23.9387C62.8952 35.6187 70.8396 45.0363 82.5196 45.0363C94.1996 45.0363 105.248 35.566 107.195 23.9387L111.141 0H94.0944Z" fill="white"/>
<path d="M142.235 0L149.022 18.2565L139.552 13.6266L136.184 34.0403H128.871L132.238 13.6266L121.242 18.2565L134.027 0H116.981L113.035 23.9387C111.088 35.6187 119.033 45.0363 130.713 45.0363C142.393 45.0363 153.441 35.566 155.388 23.9387L159.334 0H142.235Z" fill="white"/>
<path d="M190.428 0L197.215 18.2565L187.745 13.6266L184.377 34.0403H177.064L180.431 13.6266L169.435 18.2565L182.168 0H165.121L161.175 23.9387C159.229 35.6187 167.173 45.0363 178.853 45.0363C190.533 45.0363 201.582 35.566 203.528 23.9387L207.474 0H190.428Z" fill="white"/>
<path d="M238.621 0L245.408 18.2565L235.938 13.6266L232.57 34.0403H225.205L228.572 13.6266L217.576 18.2565L230.361 0H213.314L209.368 23.9387C207.422 35.6187 215.366 45.0363 227.046 45.0363C238.726 45.0363 249.775 35.566 251.721 23.9387L255.667 0H238.621Z" fill="white"/>
<path d="M287.077 0L293.864 18.2565L284.394 13.6266L280.974 33.9877H273.661L277.028 13.574L266.032 18.2039L278.817 0H261.77L257.824 23.9387C255.878 35.6187 263.822 45.0363 275.502 45.0363C287.182 45.0363 298.231 35.566 300.177 23.9387L304.123 0H287.077Z" fill="white"/>
<path d="M334.744 0L341.531 18.2565L332.061 13.6266L328.693 34.0403H321.38L324.747 13.6266L313.751 18.2565L326.484 0H309.437L305.491 23.9387C303.545 35.6187 311.489 45.0363 323.169 45.0363C334.849 45.0363 345.898 35.566 347.844 23.9387L351.79 0H334.744Z" fill="white"/>
<path d="M382.411 0L389.198 18.2565L379.728 13.6266L376.36 34.0403H369.047L372.414 13.6266L361.418 18.2565L374.151 0H357.104L353.158 23.9387C351.212 35.6187 359.156 45.0363 370.836 45.0363C382.516 45.0363 393.565 35.566 395.511 23.9387L399.457 0H382.411Z" fill="white"/>
<path d="M303.019 51.2972L309.806 69.5537L300.335 64.9238L296.968 85.3375H289.655L293.022 64.9238L282.026 69.5537L294.811 51.2972H277.765L273.819 75.2359C271.872 86.9158 279.816 96.3335 291.496 96.3335C303.176 96.3335 314.225 86.8632 316.172 75.2359L320.118 51.2972H303.019Z" fill="white"/>
<path d="M350.685 51.2972L357.472 69.5537L348.002 64.9238L344.635 85.3375H337.269L340.636 64.9238L329.64 69.5537L342.425 51.2972H325.379L321.433 75.2359C319.486 86.9158 327.431 96.3335 339.111 96.3335C350.791 96.3335 361.839 86.8632 363.786 75.2359L367.732 51.2972H350.685Z" fill="white"/>
<path d="M397.3 51.2972L404.087 69.5537L394.617 64.9238L391.25 85.3375H383.937L387.304 64.9238L376.308 69.5537L389.093 51.2972H371.993L368.048 75.2359C366.101 86.9158 374.045 96.3335 385.725 96.3335C397.405 96.3335 408.454 86.8632 410.401 75.2359L414.347 51.2972H397.3Z" fill="white"/>
<path d="M13.5446 51.2972L20.3316 69.5537L10.8614 64.9238L7.49419 85.3375H0.181059L3.54825 64.9238L-7.44775 69.5537L5.28447 51.2972H-11.762L-15.7079 75.2359C-17.6546 86.9158 -9.71009 96.3335 1.96988 96.3335C13.6499 96.3335 24.6985 86.8632 26.6451 75.2359L30.5911 51.2972H13.5446Z" fill="white"/>
<path d="M61.7377 51.2972L68.5247 69.5537L59.0545 64.9238L55.6872 85.3375H48.3741L51.7413 64.9238L40.7453 69.5537L53.5301 51.2972H36.4837L32.5378 75.2359C30.5911 86.9158 38.5356 96.3335 50.2155 96.3335C61.8955 96.3335 72.9441 86.8632 74.8908 75.2359L78.8367 51.2972H61.7377Z" fill="white"/>
<path d="M109.878 51.2972L116.665 69.5537L107.195 64.9238L103.828 85.3375H96.5145L99.8817 64.9238L88.8857 69.5537L101.671 51.2972H84.6241L80.6781 75.2359C78.7315 86.9158 86.676 96.3335 98.3559 96.3335C110.036 96.3335 121.085 86.8632 123.031 75.2359L126.977 51.2972H109.878Z" fill="white"/>
<path d="M158.071 51.2972L164.858 69.5537L155.388 64.9238L152.021 85.3375H144.708L148.075 64.9238L137.079 69.5537L149.864 51.2972H132.817L128.871 75.2359C126.925 86.9158 134.869 96.3335 146.549 96.3335C158.229 96.3335 169.278 86.8632 171.224 75.2359L175.17 51.2972H158.071Z" fill="white"/>
<path d="M206.264 51.2972L213.051 69.5537L203.581 64.9238L200.214 85.3375H192.901L196.268 64.9238L185.272 69.5537L198.057 51.2972H181.01L177.064 75.2359C175.118 86.9158 183.062 96.3335 194.742 96.3335C206.422 96.3335 217.471 86.8632 219.417 75.2359L223.363 51.2972H206.264Z" fill="white"/>
<path d="M254.72 51.2972L261.507 69.5537L252.037 64.9238L248.67 85.3375H241.357L244.724 64.9238L233.728 69.5537L246.513 51.2972H229.414L225.468 75.2359C223.521 86.9158 231.465 96.3335 243.145 96.3335C254.825 96.3335 265.874 86.8632 267.821 75.2359L271.767 51.2972H254.72Z" fill="white"/>
</g>
<g clip-path="url(#clip1)">
<path d="M-2.29175 103.12L4.49526 121.377L-4.97498 116.747L-8.39479 137.108H-15.7079L-12.3407 116.695L-23.3367 121.324L-10.5519 103.12H-27.5983L-31.5443 127.059C-33.4909 138.739 -25.5465 148.157 -13.8665 148.157C-2.18652 148.157 8.86209 138.687 10.8088 127.059L14.7547 103.12H-2.29175Z" fill="white"/>
<path d="M45.9013 103.12L52.6357 121.377L43.1655 116.747L39.7983 137.161H32.4851L35.8523 116.747L24.8563 121.377L37.6412 103.12H20.5947L16.6488 127.059C14.7021 138.739 22.6466 148.157 34.3266 148.157C46.0065 148.157 57.0552 138.687 59.0018 127.059L62.9478 103.12H45.9013Z" fill="white"/>
<path d="M94.0944 103.12L100.881 121.377L91.4111 116.747L88.0439 137.161H80.7308L84.098 116.747L73.102 121.377L85.8342 103.12H68.7878L64.8418 127.059C62.8952 138.739 70.8396 148.157 82.5196 148.157C94.1996 148.157 105.248 138.687 107.195 127.059L111.141 103.12H94.0944Z" fill="white"/>
<path d="M142.235 103.12L149.022 121.377L139.552 116.747L136.184 137.161H128.871L132.238 116.747L121.242 121.377L134.027 103.12H116.981L113.035 127.059C111.088 138.739 119.033 148.157 130.713 148.157C142.393 148.157 153.441 138.687 155.388 127.059L159.334 103.12H142.235Z" fill="white"/>
<path d="M190.428 103.12L197.215 121.377L187.745 116.747L184.377 137.161H177.064L180.431 116.747L169.435 121.377L182.168 103.12H165.121L161.175 127.059C159.229 138.739 167.173 148.157 178.853 148.157C190.533 148.157 201.582 138.687 203.528 127.059L207.474 103.12H190.428Z" fill="white"/>
<path d="M238.621 103.12L245.408 121.377L235.938 116.747L232.57 137.161H225.205L228.572 116.747L217.576 121.377L230.361 103.12H213.314L209.368 127.059C207.422 138.739 215.366 148.157 227.046 148.157C238.726 148.157 249.775 138.687 251.721 127.059L255.667 103.12H238.621Z" fill="white"/>
<path d="M287.077 103.12L293.864 121.377L284.394 116.747L280.974 137.108H273.661L277.028 116.695L266.032 121.324L278.817 103.12H261.77L257.824 127.059C255.878 138.739 263.822 148.157 275.502 148.157C287.182 148.157 298.231 138.687 300.177 127.059L304.123 103.12H287.077Z" fill="white"/>
<path d="M334.744 103.12L341.531 121.377L332.061 116.747L328.693 137.161H321.38L324.747 116.747L313.751 121.377L326.484 103.12H309.437L305.491 127.059C303.545 138.739 311.489 148.157 323.169 148.157C334.849 148.157 345.898 138.687 347.844 127.059L351.79 103.12H334.744Z" fill="white"/>
<path d="M382.411 103.12L389.198 121.377L379.728 116.747L376.36 137.161H369.047L372.414 116.747L361.418 121.377L374.151 103.12H357.104L353.158 127.059C351.212 138.739 359.156 148.157 370.836 148.157C382.516 148.157 393.565 138.687 395.511 127.059L399.457 103.12H382.411Z" fill="white"/>
<path d="M303.019 154.418L309.806 172.674L300.335 168.044L296.968 188.458H289.655L293.022 168.044L282.026 172.674L294.811 154.418H277.765L273.819 178.356C271.872 190.036 279.816 199.454 291.496 199.454C303.176 199.454 314.225 189.984 316.172 178.356L320.118 154.418H303.019Z" fill="white"/>
<path d="M350.685 154.418L357.472 172.674L348.002 168.044L344.635 188.458H337.269L340.636 168.044L329.64 172.674L342.425 154.418H325.379L321.433 178.356C319.486 190.036 327.431 199.454 339.111 199.454C350.791 199.454 361.839 189.984 363.786 178.356L367.732 154.418H350.685Z" fill="white"/>
<path d="M397.3 154.418L404.087 172.674L394.617 168.044L391.25 188.458H383.937L387.304 168.044L376.308 172.674L389.093 154.418H371.993L368.048 178.356C366.101 190.036 374.045 199.454 385.725 199.454C397.405 199.454 408.454 189.984 410.401 178.356L414.347 154.418H397.3Z" fill="white"/>
<path d="M13.5446 154.418L20.3316 172.674L10.8614 168.044L7.49419 188.458H0.181059L3.54825 168.044L-7.44775 172.674L5.28447 154.418H-11.762L-15.7079 178.356C-17.6546 190.036 -9.71009 199.454 1.96988 199.454C13.6499 199.454 24.6985 189.984 26.6451 178.356L30.5911 154.418H13.5446Z" fill="white"/>
<path d="M61.7377 154.418L68.5247 172.674L59.0545 168.044L55.6872 188.458H48.3741L51.7413 168.044L40.7453 172.674L53.5301 154.418H36.4837L32.5378 178.356C30.5911 190.036 38.5356 199.454 50.2155 199.454C61.8955 199.454 72.9441 189.984 74.8908 178.356L78.8367 154.418H61.7377Z" fill="white"/>
<path d="M109.878 154.418L116.665 172.674L107.195 168.044L103.828 188.458H96.5145L99.8817 168.044L88.8857 172.674L101.671 154.418H84.6241L80.6781 178.356C78.7315 190.036 86.676 199.454 98.3559 199.454C110.036 199.454 121.085 189.984 123.031 178.356L126.977 154.418H109.878Z" fill="white"/>
<path d="M158.071 154.418L164.858 172.674L155.388 168.044L152.021 188.458H144.708L148.075 168.044L137.079 172.674L149.864 154.418H132.817L128.871 178.356C126.925 190.036 134.869 199.454 146.549 199.454C158.229 199.454 169.278 189.984 171.224 178.356L175.17 154.418H158.071Z" fill="white"/>
<path d="M206.264 154.418L213.051 172.674L203.581 168.044L200.214 188.458H192.901L196.268 168.044L185.272 172.674L198.057 154.418H181.01L177.064 178.356C175.118 190.036 183.062 199.454 194.742 199.454C206.422 199.454 217.471 189.984 219.417 178.356L223.363 154.418H206.264Z" fill="white"/>
<path d="M254.72 154.418L261.507 172.674L252.037 168.044L248.67 188.458H241.357L244.724 168.044L233.728 172.674L246.513 154.418H229.414L225.468 178.356C223.521 190.036 231.465 199.454 243.145 199.454C254.825 199.454 265.874 189.984 267.821 178.356L271.767 154.418H254.72Z" fill="white"/>
</g>
<g clip-path="url(#clip2)">
<path d="M-2.29175 206.241L4.49526 224.498L-4.97498 219.868L-8.39479 240.229H-15.7079L-12.3407 219.815L-23.3367 224.445L-10.5519 206.241H-27.5983L-31.5443 230.18C-33.4909 241.86 -25.5465 251.277 -13.8665 251.277C-2.18652 251.277 8.86209 241.807 10.8088 230.18L14.7547 206.241H-2.29175Z" fill="white"/>
<path d="M45.9013 206.241L52.6357 224.498L43.1655 219.868L39.7983 240.281H32.4851L35.8523 219.868L24.8563 224.498L37.6412 206.241H20.5947L16.6488 230.18C14.7021 241.86 22.6466 251.277 34.3266 251.277C46.0065 251.277 57.0552 241.807 59.0018 230.18L62.9478 206.241H45.9013Z" fill="white"/>
<path d="M94.0944 206.241L100.881 224.498L91.4111 219.868L88.0439 240.281H80.7308L84.098 219.868L73.102 224.498L85.8342 206.241H68.7878L64.8418 230.18C62.8952 241.86 70.8396 251.277 82.5196 251.277C94.1996 251.277 105.248 241.807 107.195 230.18L111.141 206.241H94.0944Z" fill="white"/>
<path d="M142.235 206.241L149.022 224.498L139.552 219.868L136.184 240.281H128.871L132.238 219.868L121.242 224.498L134.027 206.241H116.981L113.035 230.18C111.088 241.86 119.033 251.277 130.713 251.277C142.393 251.277 153.441 241.807 155.388 230.18L159.334 206.241H142.235Z" fill="white"/>
<path d="M190.428 206.241L197.215 224.498L187.745 219.868L184.377 240.281H177.064L180.431 219.868L169.435 224.498L182.168 206.241H165.121L161.175 230.18C159.229 241.86 167.173 251.277 178.853 251.277C190.533 251.277 201.582 241.807 203.528 230.18L207.474 206.241H190.428Z" fill="white"/>
<path d="M238.621 206.241L245.408 224.498L235.938 219.868L232.57 240.281H225.205L228.572 219.868L217.576 224.498L230.361 206.241H213.314L209.368 230.18C207.422 241.86 215.366 251.277 227.046 251.277C238.726 251.277 249.775 241.807 251.721 230.18L255.667 206.241H238.621Z" fill="white"/>
<path d="M287.077 206.241L293.864 224.498L284.394 219.868L280.974 240.229H273.661L277.028 219.815L266.032 224.445L278.817 206.241H261.77L257.824 230.18C255.878 241.86 263.822 251.277 275.502 251.277C287.182 251.277 298.231 241.807 300.177 230.18L304.123 206.241H287.077Z" fill="white"/>
<path d="M334.744 206.241L341.531 224.498L332.061 219.868L328.693 240.281H321.38L324.747 219.868L313.751 224.498L326.484 206.241H309.437L305.491 230.18C303.545 241.86 311.489 251.277 323.169 251.277C334.849 251.277 345.898 241.807 347.844 230.18L351.79 206.241H334.744Z" fill="white"/>
<path d="M382.411 206.241L389.198 224.498L379.728 219.868L376.36 240.281H369.047L372.414 219.868L361.418 224.498L374.151 206.241H357.104L353.158 230.18C351.212 241.86 359.156 251.277 370.836 251.277C382.516 251.277 393.565 241.807 395.511 230.18L399.457 206.241H382.411Z" fill="white"/>
<path d="M303.019 257.538L309.806 275.795L300.335 271.165L296.968 291.578H289.655L293.022 271.165L282.026 275.795L294.811 257.538H277.765L273.819 281.477C271.872 293.157 279.816 302.574 291.496 302.574C303.176 302.574 314.225 293.104 316.172 281.477L320.118 257.538H303.019Z" fill="white"/>
<path d="M350.685 257.538L357.472 275.795L348.002 271.165L344.635 291.578H337.269L340.636 271.165L329.64 275.795L342.425 257.538H325.379L321.433 281.477C319.486 293.157 327.431 302.574 339.111 302.574C350.791 302.574 361.839 293.104 363.786 281.477L367.732 257.538H350.685Z" fill="white"/>
<path d="M397.3 257.538L404.087 275.795L394.617 271.165L391.25 291.578H383.937L387.304 271.165L376.308 275.795L389.093 257.538H371.993L368.048 281.477C366.101 293.157 374.045 302.574 385.725 302.574C397.405 302.574 408.454 293.104 410.401 281.477L414.347 257.538H397.3Z" fill="white"/>
<path d="M13.5446 257.538L20.3316 275.795L10.8614 271.165L7.49419 291.578H0.181059L3.54825 271.165L-7.44775 275.795L5.28447 257.538H-11.762L-15.7079 281.477C-17.6546 293.157 -9.71009 302.574 1.96988 302.574C13.6499 302.574 24.6985 293.104 26.6451 281.477L30.5911 257.538H13.5446Z" fill="white"/>
<path d="M61.7377 257.538L68.5247 275.795L59.0545 271.165L55.6872 291.578H48.3741L51.7413 271.165L40.7453 275.795L53.5301 257.538H36.4837L32.5378 281.477C30.5911 293.157 38.5356 302.574 50.2155 302.574C61.8955 302.574 72.9441 293.104 74.8908 281.477L78.8367 257.538H61.7377Z" fill="white"/>
<path d="M109.878 257.538L116.665 275.795L107.195 271.165L103.828 291.578H96.5145L99.8817 271.165L88.8857 275.795L101.671 257.538H84.6241L80.6781 281.477C78.7315 293.157 86.676 302.574 98.3559 302.574C110.036 302.574 121.085 293.104 123.031 281.477L126.977 257.538H109.878Z" fill="white"/>
<path d="M158.071 257.538L164.858 275.795L155.388 271.165L152.021 291.578H144.708L148.075 271.165L137.079 275.795L149.864 257.538H132.817L128.871 281.477C126.925 293.157 134.869 302.574 146.549 302.574C158.229 302.574 169.278 293.104 171.224 281.477L175.17 257.538H158.071Z" fill="white"/>
<path d="M206.264 257.538L213.051 275.795L203.581 271.165L200.214 291.578H192.901L196.268 271.165L185.272 275.795L198.057 257.538H181.01L177.064 281.477C175.118 293.157 183.062 302.574 194.742 302.574C206.422 302.574 217.471 293.104 219.417 281.477L223.363 257.538H206.264Z" fill="white"/>
<path d="M254.72 257.538L261.507 275.795L252.037 271.165L248.67 291.578H241.357L244.724 271.165L233.728 275.795L246.513 257.538H229.414L225.468 281.477C223.521 293.157 231.465 302.574 243.145 302.574C254.825 302.574 265.874 293.104 267.821 281.477L271.767 257.538H254.72Z" fill="white"/>
</g>
</g>
</mask>
<g mask="url(#mask0)">
<rect x="-3.13348" y="-4.20898" width="418.269" height="319.358" fill="white"/>
<rect x="-3.13348" y="-4.20898" width="418.269" height="319.358" fill="url(#paint0_linear)"/>
</g>
</g>
<defs>
<linearGradient id="paint0_linear" x1="195.019" y1="-3.76587" x2="196.692" y2="293.629" gradientUnits="userSpaceOnUse">
<stop/>
<stop offset="1" stop-color="white" stop-opacity="0"/>
</linearGradient>
<clipPath id="clip0">
<rect width="495.347" height="96.3335" fill="white" transform="translate(-81)"/>
</clipPath>
<clipPath id="clip1">
<rect width="495.347" height="96.3335" fill="white" transform="translate(-81 103.12)"/>
</clipPath>
<clipPath id="clip2">
<rect width="495.347" height="96.3335" fill="white" transform="translate(-81 206.241)"/>
</clipPath>
</defs>
</svg>
